<?xml version="1.0" standalone="no"?>
<!DOCTYPE svg PUBLIC "-//W3C//DTD SVG 20010904//EN"
 "http://www.w3.org/TR/2001/REC-SVG-20010904/DTD/svg10.dtd">
<svg version="1.0" xmlns="http://www.w3.org/2000/svg"
 width="300.000000pt" height="271.000000pt" viewBox="0 0 300.000000 271.000000"
 preserveAspectRatio="xMidYMid meet">
<metadata>
Created by potrace 1.10, written by Peter Selinger 2001-2011
</metadata>
<g transform="translate(0.000000,271.000000) scale(0.100000,-0.100000)"
fill="#000000" stroke="none">
<path d="M1389 2650 c-153 -15 -319 -65 -436 -131 l-53 -29 -450 0 c-443 0
-450 0 -450 -20 0 -20 7 -20 383 -20 210 1 402 5 427 9 l45 9 -45 -36 c-25
-20 -86 -77 -135 -127 -159 -158 -252 -325 -312 -554 -19 -74 -26 -132 -30
-254 -6 -155 -6 -157 -27 -150 -22 7 -271 11 -294 5 -6 -2 -12 -10 -12 -18 0
-11 31 -14 168 -14 l168 0 12 -69 c26 -154 94 -321 188 -463 48 -72 190 -223
260 -276 294 -223 700 -293 1049 -181 172 55 312 138 444 264 186 177 315 411
354 643 l13 77 172 3 c166 2 172 3 172 23 0 20 -3 21 -156 15 -88 -3 -163 -11
-170 -17 -10 -8 -13 13 -12 113 0 150 -14 253 -54 378 -74 232 -215 434 -410
588 -32 25 -57 46 -55 48 1 2 20 -1 42 -6 22 -5 214 -10 428 -10 380 0 387 0
387 20 0 20 -7 20 -453 20 l-453 0 -64 34 c-187 99 -431 147 -641 126z m350
-110 c189 -46 346 -130 482 -258 113 -106 177 -191 239 -317 178 -359 153
-782 -65 -1115 -60 -92 -207 -242 -294 -300 -195 -131 -450 -202 -666 -186
-449 33 -826 328 -964 754 -39 120 -54 217 -54 352 1 277 91 517 273 729 170
197 407 324 685 365 69 10 282 -4 364 -24z m-895 -144 c-78 -58 -179 -157
-236 -231 -48 -64 -122 -189 -133 -227 -4 -13 -11 -27 -15 -33 -8 -12 -53
-159 -69 -231 -7 -28 -12 -117 -12 -198 0 -129 -2 -145 -14 -129 -20 25 -19
192 0 313 19 112 63 247 114 345 20 39 38 72 41 75 3 3 11 16 19 30 61 109
295 330 349 330 8 0 -12 -20 -44 -44z m1335 5 c128 -88 282 -273 345 -416 10
-22 24 -52 31 -68 21 -43 63 -195 75 -267 14 -94 13 -295 -2 -308 -10 -8 -13
20 -14 136 0 112 -6 169 -22 240 -65 282 -224 520 -467 699 -52 39 -5 25 54
-16z"/>
<path d="M858 2083 c-56 -58 -55 -114 1 -179 40 -45 48 -77 27 -109 -34 -51
-105 -41 -131 18 -13 30 -14 31 -15 7 0 -43 42 -112 80 -132 102 -53 210 14
210 132 0 50 -2 54 -64 119 -69 70 -91 111 -81 148 7 29 4 29 -27 -4z m64
-149 c29 -31 59 -67 66 -81 19 -35 8 -84 -26 -115 -33 -31 -66 -40 -100 -27
l-26 10 31 19 c71 43 79 90 28 170 -31 50 -43 80 -31 80 3 0 29 -25 58 -56z"/>
<path d="M1250 1700 c0 -5 9 -10 20 -10 16 0 20 -7 20 -35 0 -27 -4 -34 -17
-32 -26 3 -28 -17 -3 -21 33 -5 50 16 50 64 0 44 0 44 -35 44 -19 0 -35 -4
-35 -10z"/>
<path d="M1370 1655 l0 -55 40 0 c22 0 40 5 40 10 0 6 -11 10 -25 10 -16 0
-25 6 -25 15 0 9 7 15 16 13 10 -2 19 3 21 10 3 7 -4 12 -16 12 -12 0 -21 5
-21 10 0 6 9 10 20 10 11 0 20 5 20 10 0 6 -16 10 -35 10 l-35 0 0 -55z"/>
<path d="M1500 1655 c0 -42 3 -55 15 -55 8 0 15 9 15 20 0 13 7 20 20 20 27 0
25 18 -2 22 -13 2 -23 8 -23 13 0 6 10 11 23 13 35 5 26 22 -13 22 l-35 0 0
-55z"/>
<path d="M1630 1655 c0 -30 5 -55 10 -55 6 0 10 9 10 20 0 13 7 20 20 20 11 0
20 5 20 10 0 6 -9 10 -20 10 -11 0 -20 7 -20 15 0 9 9 15 25 15 14 0 25 5 25
10 0 6 -16 10 -35 10 l-35 0 0 -55z"/>
<path d="M1750 1655 l0 -55 40 0 c22 0 40 5 40 10 0 6 -11 10 -25 10 -16 0
-25 6 -25 15 0 9 7 15 16 13 10 -2 19 3 21 10 3 7 -4 12 -16 12 -12 0 -21 5
-21 10 0 6 9 10 20 10 11 0 20 5 20 10 0 6 -16 10 -35 10 l-35 0 0 -55z"/>
<path d="M1875 1655 c0 -37 4 -55 13 -55 6 0 12 10 13 23 l0 22 16 -22 c16
-24 51 -33 37 -11 -5 7 -8 31 -9 53 0 38 -1 40 -35 43 l-35 3 0 -56z"/>
<path d="M2011 1697 c-15 -18 -5 -44 20 -52 24 -8 25 -27 1 -23 -11 2 -20 -1
-20 -7 -1 -5 13 -10 31 -10 26 0 33 4 35 22 2 16 -4 26 -22 35 -30 13 -35 29
-8 25 9 -1 18 3 20 8 4 16 -44 17 -57 2z"/>
<path d="M2129 1683 c-17 -43 0 -78 36 -78 23 0 32 6 39 27 23 64 -51 113 -75
51z m51 -34 c0 -20 -4 -29 -12 -27 -15 5 -22 33 -14 54 9 24 26 6 26 -27z"/>
<path d="M2250 1656 c0 -43 3 -56 15 -56 9 0 15 10 16 28 l1 27 11 -27 c19
-48 37 -34 37 27 0 61 -20 77 -21 18 l-1 -38 -12 35 c-7 19 -20 36 -29 38 -14
3 -17 -6 -17 -52z"/>
<path d="M660 1615 l0 -25 230 0 230 0 0 25 0 25 -230 0 -230 0 0 -25z"/>
<path d="M730 1340 l0 -230 25 0 25 0 0 230 0 230 -25 0 -25 0 0 -230z"/>
<path d="M820 1245 l0 -325 25 0 25 0 0 325 0 325 -25 0 -25 0 0 -325z"/>
<path d="M910 1195 l0 -375 25 0 25 0 0 375 0 375 -25 0 -25 0 0 -375z"/>
<path d="M1000 1290 l0 -280 25 0 25 0 0 280 0 280 -25 0 -25 0 0 -280z"/>
<path d="M1803 1549 c-96 -28 -76 -138 28 -153 87 -14 99 -18 99 -33 0 -13
-13 -15 -85 -11 -80 4 -86 3 -100 -19 -15 -22 -14 -24 12 -35 39 -16 162 -16
200 0 40 17 59 63 40 100 -12 26 -39 37 -140 59 -62 13 -43 28 36 27 55 0 75
3 84 15 22 29 14 38 -44 50 -65 13 -86 13 -130 0z"/>
<path d="M1245 1420 l0 -130 38 0 37 0 0 43 0 43 42 -2 c39 -2 44 -5 62 -43
19 -39 23 -41 63 -41 l42 0 -28 48 -28 48 22 16 c28 21 34 44 23 86 -13 47
-54 62 -175 62 l-98 0 0 -130z m193 61 c8 -5 12 -17 10 -27 -3 -16 -14 -20
-66 -22 l-62 -3 0 31 c0 30 1 30 53 30 28 0 58 -4 65 -9z"/>
<path d="M1595 1420 l0 -130 38 0 37 0 0 130 0 130 -37 0 -38 0 0 -130z"/>
<path d="M2070 1420 l0 -130 130 0 130 0 0 30 0 30 -95 0 c-88 0 -95 1 -95 20
0 19 7 20 90 20 l90 0 0 30 0 30 -90 0 c-85 0 -90 1 -90 21 0 20 4 21 95 17
l95 -3 0 33 0 32 -130 0 -130 0 0 -130z m62 -12 c-16 -16 -35 3 -26 26 6 16 8
16 22 2 13 -12 14 -18 4 -28z"/>
<path d="M1254 1226 c-10 -26 1 -51 24 -54 12 -2 22 1 22 7 0 6 -7 11 -15 11
-8 0 -15 7 -15 15 0 8 7 15 15 15 8 0 15 5 15 10 0 16 -40 12 -46 -4z"/>
<path d="M1330 1205 c0 -19 5 -35 10 -35 6 0 10 7 10 15 0 8 5 15 10 15 6 0
10 -7 10 -15 0 -8 5 -15 10 -15 6 0 10 16 10 35 0 19 -4 35 -10 35 -5 0 -10
-7 -10 -15 0 -8 -4 -15 -10 -15 -5 0 -10 7 -10 15 0 8 -4 15 -10 15 -5 0 -10
-16 -10 -35z"/>
<path d="M1421 1208 c-12 -34 -6 -52 10 -28 8 13 10 13 18 0 15 -22 22 -7 15
28 -8 41 -29 41 -43 0z"/>
<path d="M1500 1205 c0 -34 13 -47 23 -22 4 10 6 10 6 0 2 -29 18 -10 19 22 1
31 -1 35 -23 35 -22 0 -25 -4 -25 -35z"/>
<path d="M1578 1233 c6 -2 12 -18 12 -34 0 -16 5 -29 10 -29 6 0 10 13 10 29
0 16 6 32 13 34 6 3 -4 5 -23 5 -19 0 -29 -2 -22 -5z"/>
<path d="M1660 1205 c0 -28 4 -35 20 -35 25 0 26 17 3 23 -15 4 -15 5 2 6 17
1 18 3 5 11 -13 9 -13 11 0 20 12 8 11 10 -7 10 -20 0 -23 -5 -23 -35z"/>
<path d="M1730 1206 c0 -20 5 -36 10 -36 6 0 10 5 10 12 0 9 3 9 12 0 19 -19
23 -15 23 21 0 28 -4 32 -27 35 -26 3 -28 1 -28 -32z"/>
<path d="M1860 1221 c0 -11 8 -22 18 -24 16 -4 16 -5 0 -6 -25 -1 -23 -21 1
-21 27 0 37 21 18 35 -18 13 -24 30 -7 20 6 -3 10 -1 10 4 0 6 -9 11 -20 11
-13 0 -20 -7 -20 -19z"/>
<path d="M1935 1221 c-9 -28 5 -51 31 -51 13 0 24 5 24 10 0 6 -9 10 -21 10
-14 0 -19 5 -17 18 2 9 8 17 15 17 6 0 15 3 19 8 4 4 -4 7 -19 7 -16 0 -28 -7
-32 -19z"/>
<path d="M2015 1205 c0 -19 3 -35 8 -35 4 0 7 7 7 15 0 8 5 15 10 15 6 0 10
-7 10 -15 0 -8 5 -15 10 -15 6 0 10 16 10 35 0 35 -20 51 -20 18 -1 -17 -1
-17 -14 0 -18 24 -21 22 -21 -18z"/>
<path d="M2105 1221 c-8 -26 4 -51 25 -51 25 0 43 25 35 50 -8 26 -51 27 -60
1z m41 -27 c-5 -13 -10 -14 -18 -6 -6 6 -8 18 -4 28 5 13 10 14 18 6 6 -6 8
-18 4 -28z"/>
<path d="M2195 1221 c-8 -26 4 -51 25 -51 25 0 43 25 35 50 -8 26 -51 27 -60
1z m41 -27 c-5 -13 -10 -14 -18 -6 -6 6 -8 18 -4 28 5 13 10 14 18 6 6 -6 8
-18 4 -28z"/>
<path d="M2290 1205 c0 -28 4 -35 20 -35 11 0 20 5 20 10 0 6 -7 10 -15 10
-11 0 -14 7 -9 25 4 15 2 25 -5 25 -6 0 -11 -16 -11 -35z"/>
</g>
</svg>
